<svg xmlns="http://www.w3.org/2000/svg" width="194.919" height="238.25" viewBox="0 0 194.919 238.25">
  <g id="Jeans_Outline" data-name="Jeans Outline" transform="translate(0.737 0.098)">
    <path id="Path_347" data-name="Path 347" d="M49.439,84.01c-2.416,8.323-4.8,16.655-7.26,24.962-2.231,7.53-4.611,15.02-6.817,22.558-2.352,8.033-4.587,16.1-6.858,24.157-1.627,5.766-3.282,11.529-4.82,17.319q-2.132,8.021-4.027,16.107c-1.421,6.089-2.714,12.209-4.039,18.318Q14.18,214.07,12.8,220.721c-1.361,6.572-2.742,13.144-4.015,19.735-1.152,5.96-2.2,11.936-3.225,17.919-.991,5.762-1.941,11.533-2.811,17.315-.624,4.148-1.007,8.331-1.683,12.471-.185,1.148.056,1.579,1.059,1.824,6.378,1.542,12.757,3.064,19.127,4.635,5.577,1.377,11.142,2.815,16.715,4.208.173.044.4-.121.6-.189" transform="translate(-1.008 -61.859)" fill="none" stroke="#000" stroke-linejoin="round" stroke-width="1.5"/>
    <path id="Path_348" data-name="Path 348" d="M287.28,67.51c.938,1.881,1.6,3.974,2.875,5.593,2.936,3.745,7.24,4.3,11.621,4.035a47.722,47.722,0,0,0,12.076-2.795c2.082-.693,2.247-.677,2.819,1.425,1.353,4.961,2.613,9.954,4.051,14.891,1.591,5.46,3.383,10.864,5,16.317,1.667,5.621,3.217,11.275,4.848,16.909,1.655,5.71,3.391,11.4,5.017,17.118,2.058,7.236,4.1,14.476,6.032,21.749,1.7,6.419,3.358,12.854,4.82,19.333,1.49,6.612,2.69,13.289,4.071,19.925.813,3.906,1.784,7.776,2.593,11.682.8,3.878,1.482,7.784,2.231,11.674.52,2.69,1.079,5.368,1.607,8.054q1.22,6.24,2.416,12.483c.608,3.153,1.28,6.3,1.8,9.467.8,4.889,1.53,9.789,2.219,14.7.652,4.623.817,5.034,1.421,9.664" transform="translate(-172.003 -52.003)" fill="none" stroke="#000" stroke-linejoin="round" stroke-width="1.5"/>
    <path id="Path_349" data-name="Path 349" d="M212.248,371.652c-1.409-5.77-2.307-7.3-3.6-13.091-1.45-6.487-2.617-13.035-4.079-19.518-1.2-5.331-2.742-10.591-3.974-15.918-1.438-6.217-2.6-12.5-4.079-18.713-1.47-6.141-3.2-12.217-4.8-18.33-1.627-6.238-3.02-12.544-4.9-18.7-1.566-5.13-3.733-10.071-5.565-15.125a196.876,196.876,0,0,0-12.121-26.758c-3.592-6.62-7.723-12.894-13.454-17.944-2.485-2.191-2.7-2.195-5.444,0-4.574,3.656-7.836,8.408-10.836,13.313a176.876,176.876,0,0,0-12.89,26.368c-2.356,5.847-4.715,11.718-6.6,17.726-2.356,7.5-4.264,15.137-6.294,22.735-1.156,4.341-2.179,8.718-3.234,13.083q-1.842,7.647-3.624,15.3c-1.5,6.5-2.96,13.019-4.434,19.53s-2.948,13.023-4.434,19.53q-1.287,5.642-2.617,11.275c-.314,1.345-.733,2.674-.983,4.031-.181.987.326,1.454,1.381,1.639" transform="translate(-56.703 -134.669)" fill="none" stroke="#000" stroke-linejoin="round" stroke-width="1.5"/>
    <path id="Path_350" data-name="Path 350" d="M222.434,31.51h-4.027q-38.657,0-77.315.008a16.275,16.275,0,0,0-1.812.193" transform="translate(-83.6 -30.499)" fill="none" stroke="#000" stroke-linejoin="round" stroke-width="1.5"/>
    <path id="Path_351" data-name="Path 351" d="M235.979,66.01c-.068,1.478-.189,2.952-.193,4.429q-.024,23.454,0,46.912a2.067,2.067,0,0,0,.193.6" transform="translate(-141.24 -51.107)" fill="none" stroke="#000" stroke-linejoin="round" stroke-width="1.5"/>
    <path id="Path_352" data-name="Path 352" d="M424.119,594.51c-4.832,1.208-9.668,2.4-14.5,3.628-4.7,1.192-9.395,2.424-14.1,3.616-2.746.7-5.5,1.345-8.255,2.017" transform="translate(-231.729 -366.789)" fill="none" stroke="#000" stroke-linejoin="round" stroke-width="1.5"/>
    <path id="Path_353" data-name="Path 353" d="M125.975,29c-.471,3.564-.914,7.144-1.631,10.667-.6,2.927-1.554,5.783-2.384,8.666-.217.753-.544,1.474-.87,2.34,5.541,1.558,10.9,3.749,16.784,3.487a12.55,12.55,0,0,0,7.647-2.609c.713-.58,1.82-5.223,1.381-6.02-.137-.246-.628-.354-.979-.411-5.573-.922-11.15-1.824-16.913-2.758v10.2" transform="translate(-72.735 -29)" fill="none" stroke="#000" stroke-linejoin="round" stroke-width="1.5"/>
    <path id="Path_354" data-name="Path 354" d="M217.434,31.907a65.813,65.813,0,0,1-6.858,2.77c-4.788,1.365-9.632,2.541-14.493,3.636a20.136,20.136,0,0,1-7.659.54c-2.952-.455-6.024-.1-9.044-.1-4.16,0-8.364-.37-12.475.081-7.957.874-15.161-1.937-22.554-3.922-2.376-.636-4.711-1.438-7.047-2.211-1.027-.338-2.017-.793-3.024-1.2" transform="translate(-80.614 -30.493)" fill="none" stroke="#000" stroke-linejoin="round" stroke-width="1.5"/>
    <path id="Path_355" data-name="Path 355" d="M304.48,48.51c-6.962,3.109-14.384,4.671-21.745,6.439-1.8.435-3.616.854-5.44,1.176-.354.064-1.1-.31-1.152-.576-.358-1.929-.584-3.882-.854-5.831" transform="translate(-164.841 -40.654)" fill="none" stroke="#000" stroke-linejoin="round" stroke-width="1.5"/>
    <path id="Path_356" data-name="Path 356" d="M131.78,48.51c4.216,2.118,8.783,3.193,13.3,4.405,3.455.93,6.974,1.635,10.462,2.44,1.144.266,2.271.6,3.427.765.366.052,1.1-.306,1.156-.572.358-1.929.584-3.882.854-5.831" transform="translate(-79.12 -40.654)" fill="none" stroke="#000" stroke-linejoin="round" stroke-width="1.5"/>
    <path id="Path_357" data-name="Path 357" d="M345.423,31.51c-.842,6.145.64,6.25,2.609,12.084.854,2.533,1.635,5.094,2.4,7.655.089.29-.113.664-.181,1" transform="translate(-206.589 -30.499)" fill="none" stroke="#000" stroke-linejoin="round" stroke-width="1.5"/>
    <path id="Path_358" data-name="Path 358" d="M233.948,51.51a41.778,41.778,0,0,1-4.635,1.176,54.263,54.263,0,0,1-8.251.773,66.854,66.854,0,0,1-8.654-.966,29.836,29.836,0,0,1-3.628-.979" transform="translate(-125.114 -42.446)" fill="none" stroke="#000" stroke-linejoin="round" stroke-width="1.5"/>
    <path id="Path_359" data-name="Path 359" d="M255.582,68.51v1.007c0,.6.181,1.643-.032,1.736a6.16,6.16,0,0,1-2.581.411c-.221-.008-.616-.894-.568-1.337.149-1.385-.628-1.522-1.651-1.409-3.491.391-6.978.8-10.47,1.2" transform="translate(-143.929 -52.6)" fill="none" stroke="#000" stroke-linejoin="round" stroke-width="1.5"/>
    <path id="Path_360" data-name="Path 360" d="M214.7,69.919a57.913,57.913,0,0,1-8.432-.721c-1.478-.326-1.8.056-1.8,1.123,0,1.128-.322,1.587-1.454,1.413-1.059-.161-2.054-.342-1.824-1.816a9.135,9.135,0,0,0,.012-1.409" transform="translate(-120.561 -52.6)" fill="none" stroke="#000" stroke-linejoin="round" stroke-width="1.5"/>
    <path id="Path_361" data-name="Path 361" d="M478.832,594.222h0" transform="translate(-286.038 -366.501)" fill="none" stroke="#000" stroke-linejoin="round" stroke-width="1.5"/>
    <path id="Path_362" data-name="Path 362" d="M211.585,54.01q-.4,3.123-.805,6.242" transform="translate(-126.308 -43.939)" fill="none" stroke="#000" stroke-linejoin="round" stroke-width="1.5"/>
    <path id="Path_363" data-name="Path 363" d="M266.78,53.51q.4,3.123.805,6.242" transform="translate(-159.758 -43.64)" fill="none" stroke="#000" stroke-linejoin="round" stroke-width="1.5"/>
    <path id="Path_364" data-name="Path 364" d="M188.1,67.01c-.954,1.736-.922,4.007-2.819,5.235" transform="translate(-111.077 -51.704)" fill="none" stroke="#000" stroke-linejoin="round" stroke-width="1.5"/>
    <path id="Path_365" data-name="Path 365" d="M239.683,63.182c1.148.113,2.146-.157,2.376-1.417a2.418,2.418,0,0,0-.4-1.776c-.878-1.051-1.784-1.019-2.38.374" transform="translate(-143.332 -47.071)" fill="none" stroke="#000" stroke-linejoin="round" stroke-width="1.5"/>
    <path id="Path_366" data-name="Path 366" d="M235.28,57.51c.133.737.27,1.478.4,2.215" transform="translate(-140.943 -46.03)" fill="none" stroke="#000" stroke-linejoin="round" stroke-width="1.5"/>
    <path id="Path_367" data-name="Path 367" d="M235.859,198.01c-.737,1.365.093,2.207,1.007,3.02" transform="translate(-141.119 -129.953)" fill="none" stroke="#000" stroke-linejoin="round" stroke-width="1.5"/>
  </g>
</svg>
